<svg width="360" height="800" viewBox="0 0 360 800" xmlns="http://www.w3.org/2000/svg">
  <defs>
    <linearGradient id="head" x1="0" y1="0" x2="1" y2="1">
      <stop offset="0%" stop-color="#14B8A6"/>
      <stop offset="100%" stop-color="#0EA5A4"/>
    </linearGradient>
  </defs>

  <rect width="360" height="800" fill="#F8FAFC"/>
  <rect x="0" y="0" width="360" height="240" fill="url(#head)"/>
  <circle cx="180" cy="126" r="54" fill="#FFFFFF"/>
  <circle cx="180" cy="118" r="24" fill="#0EA5A4"/>
  <rect x="153" y="142" width="54" height="26" rx="13" fill="#0EA5A4"/>

  <text x="180" y="200" text-anchor="middle" font-family="Poppins, Segoe UI, sans-serif" font-size="24" font-weight="700" fill="#FFFFFF">Alejandra</text>
  <text x="180" y="224" text-anchor="middle" font-family="Nunito Sans, Segoe UI, sans-serif" font-size="13" fill="#CCFBF1">aleja@taskflow.app</text>

  <rect x="20" y="260" width="320" height="64" rx="16" fill="#FFFFFF" stroke="#E2E8F0"/>
  <text x="40" y="288" font-family="Nunito Sans, Segoe UI, sans-serif" font-size="12" fill="#64748B">Rol</text>
  <text x="40" y="309" font-family="Poppins, Segoe UI, sans-serif" font-size="16" fill="#0F172A">USER</text>

  <rect x="20" y="336" width="320" height="64" rx="16" fill="#FFFFFF" stroke="#E2E8F0"/>
  <text x="40" y="364" font-family="Nunito Sans, Segoe UI, sans-serif" font-size="12" fill="#64748B">Mantener sesion iniciada</text>
  <rect x="270" y="352" width="54" height="30" rx="15" fill="#0EA5A4"/>
  <circle cx="305" cy="367" r="11" fill="#FFFFFF"/>

  <rect x="20" y="412" width="320" height="64" rx="16" fill="#FFFFFF" stroke="#E2E8F0"/>
  <text x="40" y="440" font-family="Nunito Sans, Segoe UI, sans-serif" font-size="12" fill="#64748B">Estadisticas</text>
  <text x="40" y="461" font-family="Poppins, Segoe UI, sans-serif" font-size="16" fill="#0F172A">12 completadas este mes</text>

  <rect x="20" y="500" width="320" height="54" rx="16" fill="#FFFFFF" stroke="#0EA5A4"/>
  <text x="180" y="533" text-anchor="middle" font-family="Poppins, Segoe UI, sans-serif" font-size="16" font-weight="600" fill="#0EA5A4">Editar perfil</text>

  <rect x="20" y="566" width="320" height="54" rx="16" fill="#FEE2E2"/>
  <text x="180" y="599" text-anchor="middle" font-family="Poppins, Segoe UI, sans-serif" font-size="16" font-weight="600" fill="#B91C1C">Cerrar sesion</text>

  <rect x="0" y="716" width="360" height="84" fill="#FFFFFF"/>
  <text x="74" y="762" text-anchor="middle" font-family="Nunito Sans, Segoe UI, sans-serif" font-size="12" fill="#94A3B8">Tareas</text>
  <text x="180" y="762" text-anchor="middle" font-family="Nunito Sans, Segoe UI, sans-serif" font-size="12" fill="#94A3B8">Crear</text>
  <text x="286" y="762" text-anchor="middle" font-family="Nunito Sans, Segoe UI, sans-serif" font-size="12" fill="#0EA5A4">Perfil</text>
</svg>
