<svg width="360" height="800" viewBox="0 0 360 800" xmlns="http://www.w3.org/2000/svg">
  <rect width="360" height="800" fill="#F7FAFC"/>

  <rect x="0" y="0" width="360" height="118" fill="#FFFFFF"/>
  <text x="24" y="48" font-family="Poppins, Segoe UI, sans-serif" font-size="22" font-weight="700" fill="#0F172A">Hola, Alejandra</text>
  <text x="24" y="72" font-family="Nunito Sans, Segoe UI, sans-serif" font-size="13" fill="#64748B">Tienes 4 tareas para hoy</text>
  <circle cx="324" cy="54" r="18" fill="#0EA5A4"/>
  <text x="324" y="59" text-anchor="middle" font-family="Nunito Sans, Segoe UI, sans-serif" font-size="12" font-weight="700" fill="#FFFFFF">4</text>

  <rect x="20" y="128" width="74" height="32" rx="16" fill="#0EA5A4"/>
  <text x="57" y="148" text-anchor="middle" font-family="Nunito Sans, Segoe UI, sans-serif" font-size="12" fill="#FFFFFF">Todas</text>
  <rect x="102" y="128" width="98" height="32" rx="16" fill="#E2E8F0"/>
  <text x="151" y="148" text-anchor="middle" font-family="Nunito Sans, Segoe UI, sans-serif" font-size="12" fill="#334155">Pendientes</text>
  <rect x="208" y="128" width="112" height="32" rx="16" fill="#E2E8F0"/>
  <text x="264" y="148" text-anchor="middle" font-family="Nunito Sans, Segoe UI, sans-serif" font-size="12" fill="#334155">Completadas</text>

  <rect x="20" y="182" width="320" height="116" rx="18" fill="#FFFFFF" stroke="#E2E8F0"/>
  <rect x="34" y="200" width="7" height="80" rx="3" fill="#F59E0B"/>
  <text x="52" y="220" font-family="Poppins, Segoe UI, sans-serif" font-size="16" font-weight="600" fill="#0F172A">Preparar demo semanal</text>
  <text x="52" y="246" font-family="Nunito Sans, Segoe UI, sans-serif" font-size="13" fill="#475569">Prioridad alta  |  Hoy 17:00</text>
  <rect x="52" y="260" width="88" height="24" rx="12" fill="#FEF3C7"/>
  <text x="96" y="276" text-anchor="middle" font-family="Nunito Sans, Segoe UI, sans-serif" font-size="11" fill="#92400E">En progreso</text>

  <rect x="20" y="312" width="320" height="116" rx="18" fill="#FFFFFF" stroke="#E2E8F0"/>
  <rect x="34" y="330" width="7" height="80" rx="3" fill="#16A34A"/>
  <text x="52" y="350" font-family="Poppins, Segoe UI, sans-serif" font-size="16" font-weight="600" fill="#0F172A">Revisar reporte mensual</text>
  <text x="52" y="376" font-family="Nunito Sans, Segoe UI, sans-serif" font-size="13" fill="#475569">Prioridad media  |  Manana</text>
  <rect x="52" y="390" width="94" height="24" rx="12" fill="#DCFCE7"/>
  <text x="99" y="406" text-anchor="middle" font-family="Nunito Sans, Segoe UI, sans-serif" font-size="11" fill="#166534">Pendiente</text>

  <rect x="20" y="442" width="320" height="116" rx="18" fill="#FFFFFF" stroke="#E2E8F0"/>
  <rect x="34" y="460" width="7" height="80" rx="3" fill="#0EA5A4"/>
  <text x="52" y="480" font-family="Poppins, Segoe UI, sans-serif" font-size="16" font-weight="600" fill="#0F172A">Enviar feedback de sprint</text>
  <text x="52" y="506" font-family="Nunito Sans, Segoe UI, sans-serif" font-size="13" fill="#475569">Prioridad baja  |  Viernes</text>
  <rect x="52" y="520" width="88" height="24" rx="12" fill="#CCFBF1"/>
  <text x="96" y="536" text-anchor="middle" font-family="Nunito Sans, Segoe UI, sans-serif" font-size="11" fill="#115E59">Planificada</text>

  <circle cx="292" cy="646" r="34" fill="#0EA5A4"/>
  <text x="292" y="656" text-anchor="middle" font-family="Poppins, Segoe UI, sans-serif" font-size="34" fill="#FFFFFF">+</text>

  <rect x="0" y="716" width="360" height="84" fill="#FFFFFF"/>
  <text x="74" y="762" text-anchor="middle" font-family="Nunito Sans, Segoe UI, sans-serif" font-size="12" fill="#0EA5A4">Tareas</text>
  <text x="180" y="762" text-anchor="middle" font-family="Nunito Sans, Segoe UI, sans-serif" font-size="12" fill="#94A3B8">Crear</text>
  <text x="286" y="762" text-anchor="middle" font-family="Nunito Sans, Segoe UI, sans-serif" font-size="12" fill="#94A3B8">Perfil</text>
</svg>
